# xmcd
#
# Track frame offsets: 
#        150
#        10107
#        27220
#        42357
#        47457
#        59792
#        71242
#        84215
#        96615
#        101110
#        111545
#        114787
#        127052
#        135280
#        152692
#        171757
#        184677
#        198245
#        205835
#        220772
#        234657
#        248257
#        264875
#        276817
#
# Disc length: 4101 seconds
#
# Revision: 2
# Processed by: cddbd v1.5.2PL0 Copyright (c) Steve Scherf et al.
# Submitted via: ExactAudioCopyFreeDBPlugin 1.0
#
DISCID=4d100318
DTITLE=John Hartford - John Hartford and Iron Mountain Depot
DYEAR=1970
DGENRE=Folk/Rock
TTITLE0=Dusty Miller Hornpipe And Fugue In A Major For Strings, Brass 
TTITLE0=And 5-String Banjo
TTITLE1=I've Heard That Tearstained Monologue You Do There By The Door
TTITLE1=Before You Go
TTITLE2=Collector, The
TTITLE3=A Short Sentimental Interlude
TTITLE4=Mr. Jackson's Got Nothing To Do
TTITLE5=Open Rode Ode
TTITLE6=Little Piece In D
TTITLE7=Poor Old Purient Interest Blues, The
TTITLE8=Wart, The
TTITLE9=Railroad Street
TTITLE10=Another Short (But Not So Sentimental) Interlude
TTITLE11=Orphan Of World War Two
TTITLE12=Little Old Lonesome Little Circle Song, The
TTITLE13=I Didn't Know The World Would Last This Long
TTITLE14=Like Unto A Mockingbird
TTITLE15=Meanwhile You Sit By My Banjo
TTITLE16=I Won't Know Why I Went, Till After I Get Back
TTITLE17=Maybe
TTITLE18=Go Home Girl
TTITLE19=Natural To Be Gone
TTITLE20=Before They Tow My Car Away
TTITLE21=To Say
TTITLE22=Frustrated Bird
TTITLE23=Hey Jude
EXTD=
EXTT0=
EXTT1=
EXTT2=
EXTT3=
EXTT4=
EXTT5=
EXTT6=
EXTT7=
EXTT8=
EXTT9=
EXTT10=
EXTT11=
EXTT12=
EXTT13=
EXTT14=
EXTT15=
EXTT16=
EXTT17=
EXTT18=
EXTT19=
EXTT20=
EXTT21=
EXTT22=
EXTT23=
PLAYORDER=
